<svg width="101" height="90" viewBox="0 0 101 90" fill="none" xmlns="http://www.w3.org/2000/svg">
<path d="M30.0246 79.6132C26.2152 76.6167 22.1515 73.7437 19.3748 69.6989C13.5315 62.565 9.03259 54.3059 5.95661 45.6262C4.09795 39.9828 3.46131 33.9318 1.06487 28.5059C-1.44195 24.5652 1.49435 20.2573 5.81119 19.0049C7.73262 18.6361 11.112 16.8235 7.03321 18.1187C3.37656 20.8024 3.0224 15.6836 6.77164 15.3593C9.3313 15.0192 10.2734 12.9241 9.39773 11.0382C6.65132 9.24653 16.0597 7.27801 11.3254 4.60484C6.39395 -0.715348 18.2239 -1.73963 15.3049 4.30247C14.6065 8.94887 23.5713 3.45082 21.4913 8.81704C23.6048 11.3934 29.4078 9.40295 29.2639 13.0177C32.3436 13.2296 33.4008 15.8212 36.2916 16.02C39.2881 17.3733 44.7192 18.4394 45.7393 21.8162C42.7663 24.1692 35.8831 16.9543 35.5524 23.4693C36.4501 33.0927 36.2215 43.0059 39.7427 52.17C41.4078 57.7193 45.4447 62.0874 49.0909 66.4095C52.5802 70.6421 57.3056 73.6218 62.122 76.1307C66.3467 78.1238 70.9016 79.4453 75.5061 80.2739C77.3737 78.8458 80.671 73.535 83.5848 75.7745C83.7229 78.2907 77.8021 81.0345 83.3059 80.7562C86.5378 79.7816 88.7799 83.2557 91.4411 80.1217C93.893 83.0266 101.633 78.2661 99.888 84.2031C97.5287 85.7254 94.0881 84.8052 91.7251 86.8993C87.8294 84.9532 84.7273 88.6402 80.4141 88.1741C75.6244 89.0321 70.7515 89.3784 65.8948 89.3857C57.9281 88.7564 49.7924 88.4911 42.2129 85.717C37.9442 84.4767 33.7769 82.0452 30.0246 79.6132ZM36.753 82.5286C40.9223 84.3312 44.999 86.2318 49.568 86.8046C56.817 87.8132 64.3024 89.3637 71.5775 87.9492C68.2849 86.4625 64.8809 88.5283 61.6009 86.8862C57.667 87.7326 53.4454 86.6707 49.4456 86.1475C44.8975 84.1215 39.9896 82.7284 35.7303 80.0992C30.4085 78.1552 38.483 82.5919 39.92 82.9512C43.2471 84.8397 36.2618 81.9835 35.2767 81.1983C32.4906 79.6352 32.1354 79.9616 35.0011 81.5487C35.5781 81.8867 36.1478 82.2408 36.753 82.5286ZM28.8198 76.9222C32.8599 78.4184 28.802 74.0817 26.9512 74.3328C26.1309 72.9099 23.8177 72.0111 25.4493 71.2468C22.5135 72.2659 22.3739 67.3715 20.9944 68.0709C17.8886 67.0901 19.786 63.6165 16.0864 61.4832C15.7485 59.2353 12.4109 57.2857 11.3469 53.8953C10.8761 52.159 7.57516 47.1742 9.60332 51.8132C11.3296 56.2797 14.3669 60.1048 16.8946 63.9246C18.8574 67.5619 21.1754 71.3635 24.7499 73.6328C25.9552 74.7889 27.1186 76.5597 28.8198 76.9222ZM17.1818 64.1444C17.9205 65.4647 17.3231 63.5339 17.1818 64.1444ZM33.6582 78.716C34.5527 78.3153 32.3718 78.2112 33.6582 78.716ZM35.8511 79.5164C35.6241 78.4116 34.8504 80.1337 35.8511 79.5164ZM38.5965 80.661C39.9033 79.4165 36.5825 79.8763 38.5965 80.661ZM43.3015 83.2834C44.0956 82.1095 40.7596 82.8403 43.3015 83.2834ZM34.2671 76.985C36.2968 75.672 31.6447 76.9672 34.2671 76.985ZM36.3261 78.0119C36.2686 77.3177 35.5922 78.3231 36.3261 78.0119ZM46.6181 84.4359C48.2728 85.4806 56.2802 86.7245 51.2661 84.8643C50.427 85.0411 41.9691 82.4721 46.6181 84.4359ZM30.2788 71.7103C30.1182 71.0146 27.7103 70.9413 30.2788 71.7103ZM35.0706 74.5028C36.3172 73.6333 32.4822 73.8321 35.0706 74.5028ZM39.1008 76.974C40.8899 76.2992 36.1974 76.2966 39.1008 76.974ZM28.3296 69.5875C30.2704 71.0758 36.1593 69.7779 31.3026 68.6982C29.0918 67.5201 24.1101 66.7134 27.5057 69.4086L28.3296 69.5875ZM41.8305 77.8272C42.6392 76.4493 38.439 77.0404 41.8305 77.8272ZM37.7276 74.5671C42.4755 75.91 33.7356 71.5644 36.5563 74.0728L37.1814 74.3553L37.7276 74.5671ZM45.9532 79.3208C50.4495 79.3636 41.8922 78.7008 45.9532 79.3208ZM26.5991 66.9855C26.4234 66.1485 25.4901 67.0561 26.5991 66.9855ZM53.5589 83.5874C53.6787 82.0745 52.0916 84.7126 53.5589 83.5874ZM34.2718 71.6842C33.9998 70.8874 32.8672 71.6512 34.2718 71.6842ZM27.0255 66.4597C29.6071 66.3049 23.4918 65.3224 27.0255 66.4597ZM18.441 60.9109C18.1198 59.6737 15.6323 58.6866 18.441 60.9109ZM40.9772 75.2132C40.7549 75.3309 40.5043 74.6738 40.9772 75.2132ZM55.0043 83.8207C54.9593 82.9968 54.2406 84.1325 55.0043 83.8207ZM39.7359 73.931C39.9885 72.8691 37.5346 73.6098 39.7359 73.931ZM29.2859 67.3082C31.2058 67.1026 26.2099 66.0098 29.2859 67.3082ZM46.9628 78.2923C49.9551 77.1069 44.0464 77.7137 46.9628 78.2923ZM37.7679 72.0509C41.2168 72.4955 33.6645 69.7047 37.0114 71.8008L37.7679 72.0509ZM49.7548 79.4212C52.9746 77.4961 51.9132 83.929 55.2178 79.9653C58.4768 77.585 52.4028 82.9073 56.4199 80.389C59.3253 78.4461 63.6165 81.3102 66.3274 82.2445C68.2765 82.1488 70.1724 83.9305 72.1707 82.8466C76.0178 81.8108 64.6471 81.3097 67.6279 79.4714C64.1072 80.4957 61.5073 78.2499 59.7747 75.9952C55.8262 75.0834 51.2603 73.0647 49.2897 69.5702C48.4862 68.2582 50.451 69.7549 48.596 67.6101C46.2169 65.494 45.0283 63.0918 43.4317 60.5191C41.5234 59.5011 41.3011 56.5052 41.108 60.4187C41.1237 57.949 38.8042 56.286 38.2387 56.9775C38.2282 54.5984 40.7199 55.7911 38.9758 54.0308C38.6002 51.5653 37.3645 48.9962 36.9926 46.2127C36.4151 44.8708 36.911 41.9968 35.022 45.0346C34.3341 48.245 34.7939 41.0897 35.8642 43.4495C37.2688 41.0416 35.3594 41.3246 35.2815 41.6589C36.1969 39.6276 35.8606 36.7457 35.0424 37.8453C35.5305 35.6921 35.813 29.921 34.3126 30.9437C35.2223 28.6921 36.0374 20.6412 32.0893 23.7109C30.4896 23.7334 27.7192 24.2916 26.4098 24.9429C30.5163 27.2065 25.9965 25.7606 24.3251 25.4006C24.1075 27.4952 22.4518 26.5892 20.3834 26.6096C23.6869 27.0187 18.7748 29.989 16.8795 28.835C14.4182 30.0115 19.0034 32.9478 16.9286 33.8554C17.1834 35.2244 13.158 33.3616 13.4739 36.5223C11.0843 35.5174 13.1449 40.2721 14.3402 38.664C18.4049 39.7641 17.2017 42.2714 17.3048 44.6537C16.643 46.0416 14.0352 41.391 16.7241 41.6065C14.6034 38.1607 14.3779 40.361 12.6155 41.9617C12.2053 42.0779 17.1112 44.2394 14.0326 45.3082C16.7414 45.7262 16.8183 48.0964 17.3702 49.5962C18.9976 51.2917 18.6649 47.7235 20.6125 49.7615C19.38 47.9463 14.0834 44.6464 18.3474 45.7047C18.3249 43.8774 17.5763 42.4038 18.883 42.4399C20.1767 40.0963 17.5281 48.2173 20.4446 45.2386C21.2518 44.8865 21.4516 42.8929 22.9033 45.4269C25.0104 47.5006 23.6644 49.0035 20.691 47.1046C21.223 48.9094 24.6683 49.5539 24.0207 52.3761C24.7075 54.8578 25.6675 53.9439 26.5045 53.8001C27.1615 56.2117 27.534 54.4383 27.5654 53.2911C30.5718 53.9345 29.8676 55.7121 30.8087 56.9535C32.8803 57.8888 27.8426 50.6148 31.3999 54.7668C35.1423 58.1452 32.8034 59.5555 29.4449 59.0146C31.5704 58.842 32.2562 61.8876 34.9147 61.7809C37.3394 62.9338 38.9805 67.3642 34.8017 65.5197C33.3527 64.2129 28.2229 62.6006 32.4126 65.0865C36.2817 66.8782 39.3545 67.9506 43.0865 70.1995C45.7576 72.1063 46.9111 74.2904 47.9233 74.722C45.6791 75.7944 41.1593 73.8661 44.5151 73.275C42.4221 72.8936 40.0675 71.8353 42.0721 74.4437C43.7775 75.8666 48.1132 75.7164 48.8906 75.877C48.2314 77.3292 47.1009 77.4443 48.9172 77.5573C46.8907 78.637 49.567 78.8044 49.7548 79.4212ZM45.6111 67.7189C44.3781 66.4299 44.0595 64.0146 45.3919 66.116C46.0756 66.3907 47.5817 70.0625 45.6111 67.7189ZM59.1062 76.2913C59.8752 76.2416 59.1287 76.8757 59.1062 76.2913ZM43.664 64.5576C44.1102 66.0611 43.6169 62.6085 43.664 64.5576ZM42.3232 62.7528C44.2782 63.6014 40.7722 59.7564 42.3232 62.7528ZM26.0687 51.5344C26.9795 51.2917 26.517 53.0928 26.0687 51.5344ZM39.0045 58.5464C39.6621 60.3093 39.5643 56.445 39.0045 58.5464ZM29.8655 52.1915C31.2131 53.279 29.2216 51.0322 29.8655 52.1915ZM37.7088 54.7061C36.2398 51.4141 38.7487 52.9081 38.0336 55.2449L37.7088 54.7061ZM24.1834 45.6859C23.5263 44.6056 22.4398 41.4371 22.7897 40.4703C23.1062 42.0449 26.1398 47.2495 24.278 42.6256C22.2201 38.7498 26.7372 43.8837 27.2023 44.8504C27.4184 45.8125 25.9327 44.5878 26.9392 46.8425C25.103 44.2755 25.8553 48.2607 24.1834 45.6859ZM20.0036 42.8055C20.9604 44.5272 20.1752 40.2945 20.0036 42.8055ZM21.8837 43.4527C23.4049 46.0944 22.7809 41.5574 21.8837 43.4527ZM17.3602 39.9535C15.8039 38.4071 14.6782 36.9821 17.4335 38.9941C18.4954 39.0354 15.0742 35.7522 17.6887 37.9515C20.4383 38.4526 19.0463 42.4587 17.3602 39.9535ZM19.7363 39.8917C20.6402 38.9961 20.216 40.7732 19.7363 39.8917ZM21.1984 40.3605C22.8609 41.4371 19.8278 37.7919 21.1984 40.3605ZM18.2919 37.5827C13.7679 33.5567 23.9772 39.6882 19.0311 38.3292L18.2919 37.5827ZM31.255 45.1146C29.2969 43.9407 30.736 36.8503 31.4035 41.6997C33.3067 41.0839 31.2984 44.2039 32.7181 44.1751C32.4942 46.1436 31.8597 46.8514 31.255 45.1146ZM36.0494 47.9484C36.4533 49.409 36.2414 45.8114 36.0494 47.9484ZM35.2166 47.1255C35.4321 46.2127 35.2386 48.2 35.2166 47.1255ZM19.1797 36.2602C16.2732 32.2499 27.6266 40.3165 21.0409 37.2772C20.353 37.0972 19.5249 37.0334 19.1797 36.2602ZM28.4123 41.1551C29.0264 41.7148 28.1371 37.7783 28.4123 41.1551ZM35.4222 45.6519C35.9647 43.7283 35.4625 46.9241 35.4222 45.6519ZM19.6248 34.729C21.3522 34.3602 26.7838 37.7631 21.7958 35.702C21.2413 35.0879 20.0601 35.3672 19.6248 34.729ZM34.4586 42.1234C34.6432 38.6708 35.4897 40.0612 34.4649 42.6177L34.4586 42.1234ZM20.9102 33.5284C21.6138 32.4963 19.0416 28.8606 21.2811 32.2243C22.2488 32.9933 24.0824 33.5122 22.4633 33.8355C25.0099 36.0823 21.8424 34.4444 20.9102 33.5284ZM33.7252 41.0447C34.2117 37.1119 34.1541 43.3491 33.7252 41.0447ZM19.4407 29.8953C19.9785 29.6652 19.7248 30.612 19.4407 29.8953ZM22.7835 31.8848C24.3701 33.8978 23.6435 30.08 22.7835 31.8848ZM32.2118 37.1296C32.3896 38.1382 32.2029 36.4365 32.2118 37.1296ZM31.6656 35.9207C32.8829 37.6303 30.3568 32.692 31.6656 35.9207ZM30.8621 33.8041C31.6086 35.4802 30.6424 32.4702 30.8621 33.8041ZM32.1699 31.6782C31.2717 30.0957 33.304 24.7049 33.5306 28.0477C32.5827 30.6533 33.257 32.1108 33.9182 28.6163C35.1397 25.8662 33.6545 34.0432 32.1699 31.6782ZM33.5138 23.6602C33.9051 23.18 33.6007 24.2398 33.5138 23.6602ZM31.2696 67.8826C31.3366 68.1782 30.7371 67.4181 31.2696 67.8826ZM35.8925 70.221C38.4642 70.8812 38.4511 69.8208 36.1268 69.5064C34.8766 68.343 30.9322 67.1094 34.4633 69.362C34.6966 69.9542 35.4358 69.9406 35.8925 70.221ZM26.7618 64.1564C28.179 65.2131 32.0982 67.1508 28.7801 64.5592C29.899 63.2587 26.6389 62.5671 27.7202 61.6977C24.9696 60.0143 25.5503 60.1639 27.4775 60.2173C24.1713 58.7394 27.9546 58.8498 27.7767 58.0928C26.5018 57.8412 21.4453 55.845 24.4203 58.2566C21.3961 56.7149 23.6995 58.831 22.7856 58.6071C19.6928 57.7643 25.5393 60.9627 22.2938 60.1686C24.0683 61.5748 27.07 63.7698 23.0445 61.6564C22.5141 62.4201 25.9248 63.5768 26.7618 64.1564ZM31.5971 66.9342C37.477 68.8289 28.7147 64.6199 31.5971 66.9342ZM56.3498 81.9296C56.4257 80.763 55.5463 82.9246 56.3498 81.9296ZM58.8938 83.0004C60.2502 81.6858 58.9492 85.094 61.1416 82.6787C61.1652 80.9492 61.0736 79.9281 58.6223 82.0285C57.9464 82.403 57.644 83.997 58.8938 83.0004ZM18.5095 57.6382C18.0926 56.0009 15.5894 56.0087 18.5095 57.6382ZM21.2261 59.4179C20.217 57.7455 17.627 57.904 21.2261 59.4179ZM36.6808 68.7385C38.1895 70.0787 43.6112 69.7219 38.5133 68.9038C37.7585 67.7874 33.7194 68.0563 36.6808 68.7385ZM57.926 81.8595C60.2487 79.9108 55.6765 82.7289 57.926 81.8595ZM62.756 85.1787C62.7707 84.553 61.7553 85.4523 62.756 85.1787ZM62.7633 84.303C65.335 81.578 60.2717 84.4641 62.7633 84.303ZM11.8282 52.0445C9.63628 48.9167 10.4654 47.5111 8.352 44.9577C7.95181 43.0049 4.7257 38.5735 6.68323 43.268C8.47651 46.0139 9.00905 50.2648 11.8282 52.0445ZM61.9572 83.4372C66.6889 80.379 60.0153 82.1048 61.9572 83.4372ZM65.5689 84.8518C67.9386 82.8173 64.0706 84.4265 65.5689 84.8518ZM17.7044 54.1809C18.3824 53.1723 15.9535 54.0522 17.7044 54.1809ZM64.815 83.8856C67.1089 82.4067 64.2867 82.6337 64.3991 84.0216L64.815 83.8856ZM33.6817 64.2621C33.6033 63.2634 32.4702 64.3473 33.6817 64.2621ZM35.6058 65.3695C34.9943 64.1334 34.6657 65.5636 35.6058 65.3695ZM68.4957 84.8852C71.4352 82.765 66.7145 84.4793 67.879 85.287L68.4957 84.8852ZM67.371 84.3412C69.7648 82.335 64.8428 85.2305 67.371 84.3412ZM73.1202 88.1705C74.7283 87.0939 71.1679 87.8221 73.1202 88.1705ZM19.1781 53.4538C21.3334 53.9366 27.7887 58.7603 23.9804 53.7875C22.0291 53.21 23.1994 48.4412 21.2099 49.2855C22.5454 51.5166 22.3085 52.4661 19.5045 51.0594C15.9802 49.3394 17.524 51.9121 18.2124 52.621C17.2744 52.8344 19.4543 53.436 19.1781 53.4538ZM9.36164 45.7005C9.74718 44.105 5.80962 36.9225 7.50193 42.1014C8.11294 43.1864 8.05121 45.2423 9.36164 45.7005ZM27.3796 56.8091C27.3273 56.6778 26.2701 55.8811 27.3796 56.8091ZM30.1119 57.4447C30.1104 55.755 27.0919 56.7584 30.1119 57.4447ZM53.7891 72.3716C53.3377 71.2165 52.0042 72.3444 53.7891 72.3716ZM54.9264 73.2018C54.759 72.5557 54.2704 73.3268 54.9264 73.2018ZM64.3113 79.1131C65.2142 78.4466 63.185 79.0278 64.3113 79.1131ZM14.2649 46.9529C16.8465 45.9532 11.4991 46.2399 14.2649 46.9529ZM51.705 70.5406C51.6762 68.8687 50.0592 70.9549 51.705 70.5406ZM13.2448 44.5758C14.9031 44.0155 11.711 44.207 13.2448 44.5758ZM18.0586 46.9074C18.0283 46.3581 17.5496 47.1156 18.0586 46.9074ZM76.769 82.9104C78.9017 82.4778 83.7611 83.9959 84.5468 82.3455C81.9573 82.2822 75.5867 80.5177 75.2854 82.7661L75.8525 82.855L76.769 82.9104ZM19.5882 47.2929C19.6254 45.5996 18.2678 47.2301 19.5882 47.2929ZM6.93224 38.5138C6.35733 35.2867 4.7461 38.0252 6.93224 38.5138ZM9.95068 39.2724C9.98729 38.2366 7.18805 38.3401 9.95068 39.2724ZM11.6749 40.1198C11.2846 40.6293 11.1764 39.7154 11.6749 40.1198ZM22.5271 47.0811C23.0382 46.6118 21.3177 46.7332 22.5271 47.0811ZM10.5266 38.2088C10.2347 35.7716 7.03059 37.8437 10.5266 38.2088ZM4.33859 34.1944C4.25018 33.0697 3.73542 34.6181 4.33859 34.1944ZM5.25876 33.4991C5.10863 32.1652 4.46884 33.6692 5.25876 33.4991ZM10.3435 36.5348C12.4941 35.69 6.42743 34.7876 9.90412 36.3753L10.3435 36.5348ZM78.4011 78.5727C79.7775 77.3109 76.6523 78.1824 78.4011 78.5727ZM86.6231 82.8346C87.1745 81.203 85.2347 83.0491 86.6231 82.8346ZM10.8646 33.8695C11.0906 32.2913 9.15919 34.1829 10.8646 33.8695ZM3.62871 29.0217C3.24002 26.7937 3.29338 22.8828 7.01071 24.2048C2.04834 25.1898 10.445 30.3724 9.38465 26.2805C11.4714 26.3826 13.4666 25.0475 12.3717 27.0741C16.4829 26.6201 19.3329 23.055 23.304 23.5545C26.3972 23.1449 29.7792 22.8347 33.1126 21.5897C35.8538 21.3919 38.4919 18.4415 36.9895 16.6922C33.2517 16.3762 29.3398 16.8439 25.2087 17.6652C20.6313 18.6162 16.4725 20.4247 11.8543 21.2005C7.35231 21.8052 12.7593 22.8666 11.4704 23.1031C9.121 23.9186 14.2717 24.4684 11.1654 25.3274C9.24707 24.9628 7.25083 24.3036 8.07004 22.2818C3.75739 22.8415 -0.0321264 24.6311 3.37499 29.0196L3.62871 29.0217ZM14.0201 23.7298C15.0313 20.0051 19.437 26.7948 15.6773 24.2241C15.2285 23.8883 14.4898 23.6142 14.0201 23.7298ZM14.2168 21.9234C15.6763 20.8364 14.9926 22.5334 14.2168 21.9234ZM16.0697 21.9532C16.2015 20.239 20.3122 22.8603 16.7476 22.5705L16.0697 21.9532ZM18.6047 20.9337C19.5307 19.8524 18.8705 21.8962 18.6047 20.9337ZM19.2534 20.4995C20.7945 18.6476 27.9818 19.3172 22.7207 20.319C21.3109 19.2571 20.2306 20.9452 19.2534 20.4995ZM28.6331 19.0536C33.2925 20.8515 28.3982 13.9949 28.6331 19.0536ZM31.2942 19.0394C32.2672 16.4897 35.0701 18.0162 31.7441 18.5268C31.8168 18.7983 31.6468 19.843 31.2942 19.0394ZM9.81466 32.5607C12.7222 30.7805 6.72822 31.0159 9.81466 32.5607ZM11.9647 33.1581C12.9838 32.0742 9.74927 32.7186 11.9647 33.1581ZM5.63018 28.6623C7.29111 27.3859 3.66428 28.1769 5.63018 28.6623ZM91.4761 82.3674C91.5242 80.887 90.2065 83.0349 91.4761 82.3674ZM82.753 76.4143C83.001 74.7099 81.6319 76.5634 82.753 76.4143ZM93.8746 82.9418C96.1973 82.9497 100.912 82.2199 95.8583 82.2225C95.0658 82.3465 91.2376 82.3198 93.8746 82.9418ZM13.8553 32.1134C15.7349 31.9842 16.7963 30.0397 13.4917 30.1517C8.37031 29.6212 18.0099 31.9052 12.8347 31.2518C12.1389 31.7122 13.8155 32.2405 13.8553 32.1134ZM15.5105 32.9509C15.3143 31.7441 14.9298 33.5923 15.5105 32.9509ZM17.4743 27.7144C18.2903 26.7027 16.3459 27.444 17.4743 27.7144ZM11.2229 17.265C14.5777 16.1235 19.1655 14.8414 20.749 17.8268C19.1373 15.8866 20.0988 13.9766 21.6211 16.8135C23.7743 19.6839 24.8519 15.5078 23.452 14.5453C25.0476 16.5279 26.8628 17.4648 24.5202 14.6708C27.0658 11.609 19.4234 15.0715 17.6867 15.037C16.8507 15.4116 9.05822 17.0233 11.2229 17.265ZM13.1893 13.4995C15.1024 12.0557 19.8058 14.3585 16.7879 12.0646C16.4924 11.8041 10.1782 13.804 13.1893 13.4995ZM20.1642 13.7873C22.4032 13.8448 19.1985 10.7793 21.8664 12.1687C21.4286 10.7369 18.7601 10.4686 17.4554 9.89677C16.7178 11.2056 18.9573 13.8045 20.1642 13.7873ZM14.4119 7.4564C15.1866 6.40648 13.0544 7.98894 14.4119 7.4564ZM17.2629 8.13907C20.8714 7.66041 16.3433 6.58539 16.5358 8.10036L17.2629 8.13907ZM11.9401 3.97343C9.3993 0.656811 16.7183 4.53055 14.1367 1.05805C11.9642 -0.671928 9.87692 3.00512 11.9401 3.97343ZM44.5465 21.5358C45.7115 19.47 39.7353 18.7512 43.7613 20.8034C44.1317 20.9279 44.0485 21.6786 44.5465 21.5358Z" fill="black"/>
</svg>
