<svg width="24" height="24" viewBox="0 0 24 24" fill="none" xmlns="http://www.w3.org/2000/svg">
<path fill-rule="evenodd" clip-rule="evenodd" d="M5.70463 17.1524C5.56279 17.2658 5.37952 17.3321 5.16022 17.3321C4.70944 17.3321 4.32422 16.9767 4.32422 16.4801C4.32422 16.4076 4.3391 16.3357 4.35118 16.2874C4.36383 16.2368 4.37955 16.1883 4.39314 16.154L6.12808 11.7088C6.25785 11.3646 6.55257 11.0681 7.02422 11.0681C7.49587 11.0681 7.79058 11.3646 7.92036 11.7088L9.6553 16.154C9.66889 16.1883 9.68461 16.2368 9.69726 16.2874C9.70934 16.3357 9.72422 16.4076 9.72422 16.4801C9.72422 16.9351 9.38022 17.3321 8.88822 17.3321C8.51702 17.3321 8.20367 17.1348 8.07757 16.7727L7.8144 16.0521H6.23404L5.97016 16.7746C5.92418 16.901 5.84246 17.0421 5.70463 17.1524ZM6.8132 14.4441L7.02422 13.8664L7.23524 14.4441H6.8132Z" fill="black"/>
<path d="M16.7759 17.3001H18.8639C19.3287 17.3001 19.6759 16.9387 19.6759 16.4881C19.6759 16.0486 19.3317 15.6761 18.8639 15.6761H18.6519V12.7241H18.8639C19.3317 12.7241 19.6759 12.3516 19.6759 11.9121C19.6759 11.4615 19.3287 11.1001 18.8639 11.1001H16.7759C16.3081 11.1001 15.9639 11.4726 15.9639 11.9121C15.9639 12.3516 16.3081 12.7241 16.7759 12.7241H16.9799V15.6761H16.7759C16.3081 15.6761 15.9639 16.0486 15.9639 16.4881C15.9639 16.9276 16.3081 17.3001 16.7759 17.3001Z" fill="black"/>
<path fill-rule="evenodd" clip-rule="evenodd" d="M11.291 17.3321C11.7476 17.3321 12.119 16.9549 12.119 16.4961V15.3001H13.011C14.2661 15.3001 15.087 14.3079 15.087 13.2001C15.087 12.1722 14.2734 11.1001 13.011 11.1001H11.291C10.8243 11.1001 10.447 11.4715 10.447 11.9361V16.4961C10.447 16.9607 10.8243 17.3321 11.291 17.3321ZM12.119 12.6921V13.7081H12.891C13.1634 13.7081 13.391 13.4844 13.391 13.2001C13.391 12.9159 13.1634 12.6921 12.891 12.6921H12.119Z" fill="black"/>
<path fill-rule="evenodd" clip-rule="evenodd" d="M15.0438 1.66704e-07H8.95624C7.5932 -7.76742e-06 6.50917 -1.42083e-05 5.63458 0.0714426C4.73898 0.144616 3.97531 0.297677 3.27606 0.653961C2.14709 1.2292 1.2292 2.14709 0.653961 3.27606C0.297677 3.97531 0.144616 4.73898 0.0714426 5.63458C0.063689 5.72948 0.0567768 5.82684 0.0506147 5.92676L0.0492204 5.94963C-1.25319e-05 6.76613 -6.81378e-06 7.75235 1.66704e-07 8.95623V15.0438C-7.76742e-06 16.4068 -1.42083e-05 17.4908 0.0714426 18.3654C0.144616 19.261 0.297677 20.0247 0.653961 20.7239C1.2292 21.8529 2.14709 22.7708 3.27606 23.346C3.9753 23.7023 4.73898 23.8554 5.63458 23.9286C6.50914 24 7.59313 24 8.95613 24H15.0438C16.4068 24 17.4909 24 18.3654 23.9286C19.261 23.8554 20.0247 23.7023 20.7239 23.346C21.8529 22.7708 22.7708 21.8529 23.346 20.7239C23.7023 20.0247 23.8554 19.261 23.9286 18.3654C24 17.4909 24 16.4069 24 15.0439V8.95622C24 7.7523 24 6.76605 23.9508 5.94954L23.9494 5.92686C23.9432 5.8269 23.9363 5.72951 23.9286 5.63458C23.8554 4.73898 23.7023 3.9753 23.346 3.27606C22.7708 2.14709 21.8529 1.2292 20.7239 0.653961C20.0247 0.297677 19.261 0.144616 18.3654 0.0714426C17.4908 -1.40816e-05 16.4068 -7.76744e-06 15.0438 1.66704e-07ZM2 9C2 8.21807 2.00024 7.56237 2.01122 7H21.9888C21.9998 7.56237 22 8.21807 22 9V15C22 16.4166 21.9992 17.419 21.9352 18.2026C21.8721 18.9745 21.7527 19.4457 21.564 19.816C21.1805 20.5686 20.5686 21.1805 19.816 21.564C19.4457 21.7527 18.9745 21.8721 18.2026 21.9352C17.419 21.9992 16.4166 22 15 22H9C7.58337 22 6.58104 21.9992 5.79744 21.9352C5.02552 21.8721 4.55435 21.7527 4.18404 21.564C3.43139 21.1805 2.81947 20.5686 2.43597 19.816C2.24729 19.4457 2.12787 18.9745 2.0648 18.2026C2.00078 17.419 2 16.4166 2 15V9ZM2.16889 5H21.8311C21.765 4.66334 21.6769 4.40563 21.564 4.18404C21.1805 3.43139 20.5686 2.81947 19.816 2.43597C19.4457 2.24729 18.9745 2.12787 18.2026 2.0648C17.419 2.00078 16.4166 2 15 2H9C7.58337 2 6.58104 2.00078 5.79744 2.0648C5.02552 2.12787 4.55435 2.24729 4.18404 2.43597C3.43139 2.81947 2.81947 3.43139 2.43597 4.18404C2.32307 4.40563 2.23496 4.66334 2.16889 5Z" fill="black"/>
</svg>
