<svg width="24" height="24" viewBox="0 0 24 24" fill="none" xmlns="http://www.w3.org/2000/svg">
<path d="M20.414 14.4956L19.5294 14.9618L19.5294 14.9618L20.414 14.4956ZM16.2365 6.56774L17.1212 6.10156L17.1212 6.10156L16.2365 6.56774ZM7.76346 6.56774L6.87877 6.10156L6.87877 6.10156L7.76346 6.56774ZM3.58595 14.4956L4.47064 14.9618L4.47064 14.9618L3.58595 14.4956ZM13.2686 2.27099L13.679 1.35907L13.679 1.35907L13.2686 2.27099ZM10.7314 2.27099L11.1418 3.1829L11.1418 3.1829L10.7314 2.27099ZM20.7482 20.4929L21.3012 21.3261L21.3012 21.3261L20.7482 20.4929ZM21.9801 18.6015L20.992 18.4477L20.992 18.4477L21.9801 18.6015ZM3.25179 20.4929L2.69883 21.3261L2.69883 21.3261L3.25179 20.4929ZM2.01992 18.6015L3.00802 18.4477L3.00802 18.4477L2.01992 18.6015ZM9.9334 11.1023L10.7772 11.6389L10.7772 11.6389L9.9334 11.1023ZM10.082 11.0896L9.32443 11.7424L9.32443 11.7424L10.082 11.0896ZM12 12L11.5528 11.1056L11.5528 11.1056L12 12ZM12.3524 8.78662L13.2832 8.4212L13.2832 8.4212L12.3524 8.78662ZM12.5582 8.65885L11.8001 9.31104L11.8001 9.31104L12.5582 8.65885ZM7.82249 22H16.1775V20H7.82249V22ZM21.2987 14.0294L17.1212 6.10156L15.3518 7.03392L19.5294 14.9618L21.2987 14.0294ZM6.87877 6.10156L2.70126 14.0294L4.47064 14.9618L8.64815 7.03392L6.87877 6.10156ZM17.1212 6.10156C16.4489 4.8257 15.9125 3.80542 15.4246 3.05802C14.9422 2.31916 14.4106 1.68832 13.679 1.35907L12.8582 3.1829C13.0492 3.26885 13.3198 3.49253 13.7498 4.15133C14.1743 4.80158 14.6606 5.72207 15.3518 7.03392L17.1212 6.10156ZM8.64815 7.03392C9.33942 5.72207 9.82565 4.80158 10.2502 4.15133C10.6802 3.49253 10.9508 3.26885 11.1418 3.1829L10.321 1.35907C9.58942 1.68832 9.05779 2.31916 8.57544 3.05802C8.08752 3.80542 7.55107 4.82571 6.87877 6.10156L8.64815 7.03392ZM13.679 1.35907C12.6151 0.880308 11.3849 0.880308 10.321 1.35907L11.1418 3.1829C11.6837 2.93903 12.3163 2.93903 12.8582 3.1829L13.679 1.35907ZM16.1775 22C17.4278 22 18.431 22.0009 19.2144 21.9329C19.9943 21.8651 20.7069 21.7204 21.3012 21.3261L20.1952 19.6596C20.0253 19.7724 19.7214 19.8813 19.0414 19.9404C18.365 19.9991 17.4649 20 16.1775 20V22ZM19.5294 14.9618C20.1063 16.0566 20.5047 16.815 20.749 17.4086C20.9944 18.0047 21.0174 18.2845 20.992 18.4477L22.9682 18.7554C23.0791 18.0433 22.8864 17.3469 22.5985 16.6473C22.3095 15.9453 21.8567 15.0883 21.2987 14.0294L19.5294 14.9618ZM21.3012 21.3261C22.1931 20.7341 22.8042 19.8082 22.9682 18.7554L20.992 18.4477C20.9179 18.9236 20.6379 19.3659 20.1952 19.6596L21.3012 21.3261ZM7.82249 20C6.53512 20 5.63502 19.9991 4.9586 19.9404C4.27858 19.8813 3.97468 19.7724 3.80476 19.6596L2.69883 21.3261C3.29308 21.7204 4.00568 21.8651 4.78555 21.9329C5.56902 22.0009 6.57217 22 7.82249 22V20ZM2.70126 14.0294C2.14329 15.0883 1.69052 15.9453 1.40153 16.6473C1.11355 17.3469 0.920943 18.0433 1.03183 18.7554L3.00802 18.4477C2.98261 18.2845 3.00557 18.0047 3.25096 17.4086C3.49533 16.815 3.89373 16.0566 4.47064 14.9618L2.70126 14.0294ZM3.80476 19.6596C3.36213 19.3659 3.08213 18.9236 3.00802 18.4477L1.03183 18.7554C1.19576 19.8082 1.8069 20.7341 2.69883 21.3261L3.80476 19.6596ZM14.5 14C14.5 14.4426 14.2497 14.9315 13.7406 15.3453C13.2322 15.7586 12.5756 16 12 16V18C13.0813 18 14.1747 17.5698 15.0021 16.8973C15.8287 16.2254 16.5 15.2143 16.5 14H14.5ZM12 16C10.8954 16 10 15.1046 10 14H8C8 16.2091 9.79086 18 12 18V16ZM10 14C10 13.6778 10.148 12.6284 10.7772 11.6389L9.08959 10.5656C8.22969 11.9177 8 13.3505 8 14H10ZM9.32443 11.7424C9.42277 11.8565 9.79504 12.3561 10.2372 12.6795C10.4812 12.858 10.8043 13.0337 11.2012 13.0978C11.6139 13.1643 12.0384 13.0988 12.4472 12.8944L11.5528 11.1056C11.4997 11.1321 11.4979 11.1198 11.5198 11.1233C11.5258 11.1243 11.4938 11.1207 11.4181 11.0654C11.3412 11.0091 11.2536 10.9248 11.1511 10.8087C11.1011 10.7521 11.0526 10.6938 11.0009 10.6309C10.9538 10.5735 10.8938 10.4998 10.8396 10.4368L9.32443 11.7424ZM12.4472 12.8944C13.2466 12.4947 13.6436 11.7503 13.7305 10.9387C13.813 10.1675 13.6285 9.30079 13.2832 8.4212L11.4215 9.15203C11.7054 9.87514 11.7768 10.3991 11.7418 10.7259C11.7112 11.0123 11.6175 11.0732 11.5528 11.1056L12.4472 12.8944ZM11.8001 9.31104C12.908 10.5988 13.5477 11.2517 13.9704 11.9145C14.3263 12.4727 14.5 13.0068 14.5 14H16.5C16.5 12.6883 16.2487 11.7675 15.6567 10.8392C15.1314 10.0155 14.3001 9.15029 13.3162 8.00665L11.8001 9.31104ZM13.2832 8.4212C13.5048 8.98571 13.1218 9.38232 12.9384 9.49646C12.7552 9.6105 12.209 9.78629 11.8001 9.31104L13.3162 8.00665C12.8299 7.44139 12.159 7.62578 11.8815 7.79858C11.6037 7.97148 11.1565 8.47699 11.4215 9.15203L13.2832 8.4212ZM10.7772 11.6389C10.4718 12.1192 9.74561 12.2312 9.32443 11.7424L10.8396 10.4368C10.336 9.85242 9.46277 9.97884 9.08959 10.5656L10.7772 11.6389Z" fill="black"/>
</svg>
