<svg width="24" height="24" viewBox="0 0 24 24" fill="none" xmlns="http://www.w3.org/2000/svg">
<path d="M7.75737 14.1421C7.36685 14.5327 7.36685 15.1658 7.75737 15.5563C8.14789 15.9469 8.78106 15.9469 9.17158 15.5563L7.75737 14.1421ZM12 14.3848C12.5523 14.3848 13 13.9371 13 13.3848C13 12.8325 12.5523 12.3848 12 12.3848L12 14.3848ZM4.92888 11.3136C4.53836 11.7042 4.53836 12.3373 4.92888 12.7279C5.3194 13.1184 5.95257 13.1184 6.34309 12.7279L4.92888 11.3136ZM13.7787 10.5838C14.3173 10.706 14.853 10.3684 14.9752 9.82982C15.0974 9.29123 14.7599 8.75554 14.2213 8.63334L13.7787 10.5838ZM2.10051 8.48527C1.70999 8.87579 1.70999 9.50896 2.10051 9.89948C2.49103 10.29 3.1242 10.29 3.51472 9.89948L2.10051 8.48527ZM17.5383 7.73533C18.0283 7.9903 18.6321 7.79984 18.8871 7.30993C19.142 6.82002 18.9516 6.21618 18.4617 5.96122L17.5383 7.73533ZM18.4976 12.7186L17.7506 13.3833C17.9403 13.5966 18.2122 13.7186 18.4976 13.7186C18.7831 13.7186 19.0549 13.5966 19.2446 13.3833L18.4976 12.7186ZM15.4425 15.2164L16.2201 14.5877L15.4425 15.2164ZM21.5527 15.2164L20.7751 14.5877L21.5527 15.2164ZM18.3152 17.9013L18.9634 17.1398L18.3152 17.9013ZM18.4476 17.993L18.1719 18.9543L18.4476 17.993ZM18.68 17.9013L18.0318 17.1398L18.68 17.9013ZM18.5476 17.993L18.8233 18.9543L18.5476 17.993ZM12 18.3848V20.3848C13.1046 20.3848 14 19.4893 14 18.3848H12ZM12 18.3848H10C10 19.4893 10.8954 20.3848 12 20.3848V18.3848ZM12 18.3848V16.3848C10.8954 16.3848 10 17.2802 10 18.3848H12ZM12 18.3848H14C14 17.2802 13.1046 16.3848 12 16.3848V18.3848ZM9.17158 15.5563C9.95283 14.7751 10.9748 14.3848 12 14.3848L12 12.3848C10.466 12.3848 8.92874 12.9708 7.75737 14.1421L9.17158 15.5563ZM6.34309 12.7279C8.35962 10.7113 11.185 9.99524 13.7787 10.5838L14.2213 8.63334C10.9858 7.89921 7.45127 8.79125 4.92888 11.3136L6.34309 12.7279ZM3.51472 9.89948C7.30948 6.10473 13.0157 5.38158 17.5383 7.73533L18.4617 5.96122C13.1871 3.21614 6.53005 4.05573 2.10051 8.48527L3.51472 9.89948ZM19.2446 12.0538C18.2465 10.9321 16.4759 10.5539 15.1195 11.668L16.3888 13.2135C16.7859 12.8874 17.3492 12.9323 17.7506 13.3833L19.2446 12.0538ZM15.1195 11.668C13.8288 12.728 13.6224 14.5558 14.6648 15.8451L16.2201 14.5877C15.8854 14.1737 15.926 13.5936 16.3888 13.2135L15.1195 11.668ZM22.3304 15.8451C23.3634 14.5673 23.1954 12.7222 21.8652 11.6594L20.6169 13.222C21.0704 13.5843 21.1191 14.1622 20.7751 14.5877L22.3304 15.8451ZM21.8652 11.6594C20.5042 10.5721 18.756 10.9238 17.7506 12.0538L19.2446 13.3833C19.6387 12.9405 20.1943 12.8844 20.6169 13.222L21.8652 11.6594ZM14.6648 15.8451C15.0074 16.2688 15.6416 16.8692 16.2087 17.3837C16.7955 17.9162 17.3796 18.4181 17.667 18.6628L18.9634 17.1398C18.6831 16.9012 18.117 16.4147 17.5525 15.9025C16.9683 15.3725 16.45 14.8721 16.2201 14.5877L14.6648 15.8451ZM19.3282 18.6628C19.6156 18.4181 20.1997 17.9162 20.7866 17.3837C21.3537 16.8692 21.9878 16.2688 22.3304 15.8451L20.7751 14.5877C20.5452 14.8721 20.0269 15.3725 19.4427 15.9025C18.8782 16.4147 18.3121 16.9012 18.0318 17.1398L19.3282 18.6628ZM17.667 18.6628C17.687 18.6797 17.7452 18.7302 17.805 18.7735C17.8771 18.8257 18.0007 18.9052 18.1719 18.9543L18.7232 17.0318C18.8574 17.0703 18.9466 17.1309 18.9777 17.1534C18.9919 17.1637 18.9992 17.1699 18.9939 17.1656C18.9886 17.1612 18.981 17.1548 18.9634 17.1398L17.667 18.6628ZM18.0318 17.1398C18.0142 17.1548 18.0066 17.1612 18.0013 17.1656C17.996 17.1699 18.0033 17.1637 18.0175 17.1534C18.0486 17.1309 18.1378 17.0703 18.272 17.0318L18.8233 18.9543C18.9945 18.9052 19.1181 18.8257 19.1902 18.7735C19.25 18.7302 19.3082 18.6797 19.3282 18.6628L18.0318 17.1398ZM18.1719 18.9543C18.3844 19.0152 18.6108 19.0152 18.8233 18.9543L18.272 17.0318C18.4198 16.9894 18.5754 16.9894 18.7232 17.0318L18.1719 18.9543Z" fill="black"/>
</svg>
