<svg width="24" height="24" viewBox="0 0 24 24" fill="none" xmlns="http://www.w3.org/2000/svg">
<path d="M1.54497 20.27L2.43597 19.816H2.43597L1.54497 20.27ZM3.73005 22.455L3.27606 23.346L3.73005 22.455ZM20.27 1.54497L19.816 2.43597V2.43597L20.27 1.54497ZM22.455 3.73005L21.564 4.18404V4.18404L22.455 3.73005ZM3.73005 1.54497L4.18404 2.43597L3.73005 1.54497ZM1.54497 3.73005L2.43597 4.18404L1.54497 3.73005ZM22 11C22 11.5523 22.4477 12 23 12C23.5523 12 24 11.5523 24 11H22ZM8 22.9989L7.99644 23.9989H8V22.9989ZM11 23.9989C11.5523 23.9989 12 23.5512 12 22.9989C12 22.4466 11.5523 21.9989 11 21.9989V23.9989ZM6.70711 5.29289C6.31658 4.90237 5.68342 4.90237 5.29289 5.29289C4.90237 5.68342 4.90237 6.31658 5.29289 6.70711L6.70711 5.29289ZM8.64645 9.35355L9.35355 10.0607L8.64645 9.35355ZM5.29289 11.2929C4.90237 11.6834 4.90237 12.3166 5.29289 12.7071C5.68342 13.0976 6.31658 13.0976 6.70711 12.7071L5.29289 11.2929ZM17 20.0001C17.0001 20.5524 17.4478 21.0001 18.0001 21C18.5524 20.9999 19.0001 20.5522 19 19.9999L17 20.0001ZM18.9999 18.6401C18.9998 18.0878 18.5521 17.6401 17.9998 17.6402C17.4475 17.6402 16.9998 18.088 16.9999 18.6403L18.9999 18.6401ZM17.0098 16.0001C17.0098 16.5524 17.4575 17.0001 18.0098 17.0001C18.562 17.0001 19.0098 16.5524 19.0098 16.0001H17.0098ZM19.0098 15.9901C19.0098 15.4378 18.562 14.9901 18.0098 14.9901C17.4575 14.9901 17.0098 15.4378 17.0098 15.9901H19.0098ZM9 2H15V0H9V2ZM2 15V9H0V15H2ZM0 15C0 16.3836 -0.000777721 17.4815 0.071442 18.3654C0.144616 19.261 0.297677 20.0247 0.653961 20.7239L2.43597 19.816C2.24729 19.4457 2.12787 18.9745 2.0648 18.2026C2.00078 17.419 2 16.4166 2 15H0ZM4.18404 21.564C3.43139 21.1805 2.81947 20.5686 2.43597 19.816L0.653961 20.7239C1.2292 21.8529 2.14708 22.7708 3.27606 23.346L4.18404 21.564ZM15 2C16.4166 2 17.419 2.00078 18.2026 2.0648C18.9745 2.12787 19.4457 2.24729 19.816 2.43597L20.7239 0.653961C20.0247 0.297677 19.261 0.144616 18.3654 0.071442C17.4815 -0.000777721 16.3836 0 15 0V2ZM24 9C24 7.61637 24.0008 6.51851 23.9286 5.63458C23.8554 4.73898 23.7023 3.9753 23.346 3.27606L21.564 4.18404C21.7527 4.55435 21.8721 5.02552 21.9352 5.79744C21.9992 6.58104 22 7.58337 22 9H24ZM19.816 2.43597C20.5686 2.81947 21.1805 3.43139 21.564 4.18404L23.346 3.27606C22.7708 2.14708 21.8529 1.2292 20.7239 0.653961L19.816 2.43597ZM9 0C7.61637 0 6.51851 -0.000777721 5.63458 0.071442C4.73898 0.144616 3.9753 0.297677 3.27606 0.653961L4.18404 2.43597C4.55435 2.24729 5.02552 2.12787 5.79744 2.0648C6.58104 2.00078 7.58337 2 9 2V0ZM2 9C2 7.58337 2.00078 6.58104 2.0648 5.79744C2.12787 5.02552 2.24729 4.55435 2.43597 4.18404L0.653961 3.27606C0.297677 3.9753 0.144616 4.73898 0.071442 5.63458C-0.000777721 6.51851 0 7.61637 0 9H2ZM3.27606 0.653961C2.14708 1.2292 1.2292 2.14708 0.653961 3.27606L2.43597 4.18404C2.81947 3.43139 3.43139 2.81947 4.18404 2.43597L3.27606 0.653961ZM22 9V11H24V9H22ZM8.00356 21.9989C5.78993 21.991 4.86497 21.911 4.18404 21.564L3.27606 23.346C4.46296 23.9508 5.90993 23.9915 7.99644 23.9989L8.00356 21.9989ZM8 23.9989H11V21.9989H8V23.9989ZM5.29289 6.70711L7.93934 9.35355L9.35355 7.93934L6.70711 5.29289L5.29289 6.70711ZM7.93934 8.64645L5.29289 11.2929L6.70711 12.7071L9.35355 10.0607L7.93934 8.64645ZM7.93934 9.35355C7.74408 9.15829 7.74408 8.84171 7.93934 8.64645L9.35355 10.0607C9.93934 9.47487 9.93934 8.52513 9.35355 7.93934L7.93934 9.35355ZM19 19.9999L18.9999 18.6401L16.9999 18.6403L17 20.0001L19 19.9999ZM19.0098 16.0001V15.9901H17.0098V16.0001H19.0098ZM22 18C22 20.2091 20.2091 22 18 22V24C21.3137 24 24 21.3137 24 18H22ZM18 22C15.7909 22 14 20.2091 14 18H12C12 21.3137 14.6863 24 18 24V22ZM14 18C14 15.7909 15.7909 14 18 14V12C14.6863 12 12 14.6863 12 18H14ZM18 14C20.2091 14 22 15.7909 22 18H24C24 14.6863 21.3137 12 18 12V14Z" fill="black"/>
</svg>
