<svg width="100" height="100" viewBox="0 0 100 100" fill="none" xmlns="http://www.w3.org/2000/svg">
<path fill-rule="evenodd" clip-rule="evenodd" d="M51.747 14C54.7586 14 57.2 16.4414 57.2 19.453C57.2 24.3111 63.0736 26.744 66.5088 23.3088C68.6383 21.1793 72.091 21.1793 74.2205 23.3088L76.6912 25.7795C78.8207 27.909 78.8207 31.3617 76.6912 33.4912C73.256 36.9264 75.6889 42.8 80.547 42.8C83.5586 42.8 86 45.2414 86 48.253V51.747C86 54.7586 83.5586 57.2 80.547 57.2C75.6889 57.2 73.256 63.0736 76.6912 66.5088C78.8207 68.6384 78.8207 72.091 76.6912 74.2205L74.2205 76.6912C72.091 78.8207 68.6383 78.8207 66.5088 76.6912C63.0736 73.256 57.2 75.6889 57.2 80.547C57.2 83.5586 54.7586 86 51.747 86H48.253C45.2414 86 42.8 83.5586 42.8 80.547C42.8 75.6889 36.9263 73.256 33.4912 76.6912C31.3616 78.8207 27.909 78.8207 25.7795 76.6912L23.3088 74.2205C21.1793 72.091 21.1793 68.6384 23.3088 66.5088C26.744 63.0736 24.3111 57.2 19.453 57.2C16.4414 57.2 14 54.7586 14 51.747V48.253C14 45.2414 16.4414 42.8 19.453 42.8C24.3111 42.8 26.744 36.9264 23.3088 33.4912C21.1793 31.3616 21.1793 27.909 23.3088 25.7795L25.7795 23.3088C27.909 21.1793 31.3616 21.1793 33.4912 23.3088C36.9264 26.744 42.8 24.3111 42.8 19.453C42.8 16.4414 45.2414 14 48.253 14H51.747ZM50 62C56.6274 62 62 56.6274 62 50C62 43.3726 56.6274 38 50 38C43.3726 38 38 43.3726 38 50C38 56.6274 43.3726 62 50 62Z" fill="#4444FF"/>
<path d="M66.5088 23.3088L65.0946 21.8946V21.8946L66.5088 23.3088ZM74.2205 23.3088L72.8063 24.7231V24.7231L74.2205 23.3088ZM76.6912 25.7795L78.1054 24.3653V24.3653L76.6912 25.7795ZM76.6912 33.4912L78.1054 34.9054L76.6912 33.4912ZM80.547 42.8V44.8V42.8ZM76.6912 74.2205L75.2769 72.8063H75.2769L76.6912 74.2205ZM74.2205 76.6912L72.8063 75.277V75.277L74.2205 76.6912ZM33.4912 76.6912L34.9054 78.1054L33.4912 76.6912ZM25.7795 76.6912L27.1937 75.277L25.7795 76.6912ZM23.3088 74.2205L24.723 72.8063L24.723 72.8063L23.3088 74.2205ZM23.3088 66.5088L24.723 67.923L23.3088 66.5088ZM19.453 42.8L19.453 40.8H19.453V42.8ZM25.7795 23.3088L27.1937 24.723H27.1937L25.7795 23.3088ZM33.4912 23.3088L34.9054 21.8946V21.8946L33.4912 23.3088ZM59.2 19.453C59.2 15.3368 55.8632 12 51.747 12V16C53.654 16 55.2 17.546 55.2 19.453H59.2ZM65.0946 21.8946C62.9194 24.0699 59.2 22.5293 59.2 19.453H55.2C55.2 26.0929 63.2279 29.4182 67.923 24.723L65.0946 21.8946ZM75.6347 21.8946C72.7241 18.9841 68.0052 18.9841 65.0946 21.8946L67.923 24.723C69.2715 23.3746 71.4578 23.3746 72.8063 24.7231L75.6347 21.8946ZM78.1054 24.3653L75.6347 21.8946L72.8063 24.7231L75.2769 27.1937L78.1054 24.3653ZM78.1054 34.9054C81.0159 31.9948 81.0159 27.2759 78.1054 24.3653L75.2769 27.1937C76.6254 28.5422 76.6254 30.7285 75.2769 32.077L78.1054 34.9054ZM80.547 40.8C77.4707 40.8 75.9301 37.0806 78.1054 34.9054L75.2769 32.077C70.5818 36.7721 73.9071 44.8 80.547 44.8V40.8ZM88 48.253C88 44.1368 84.6632 40.8 80.547 40.8V44.8C82.454 44.8 84 46.346 84 48.253H88ZM88 51.747V48.253H84V51.747H88ZM80.547 59.2C84.6632 59.2 88 55.8632 88 51.747H84C84 53.654 82.454 55.2 80.547 55.2V59.2ZM78.1054 65.0946C75.9301 62.9194 77.4707 59.2 80.547 59.2V55.2C73.9071 55.2 70.5818 63.2279 75.2769 67.923L78.1054 65.0946ZM78.1054 75.6347C81.016 72.7242 81.0159 68.0052 78.1054 65.0946L75.2769 67.923C76.6254 69.2715 76.6254 71.4578 75.2769 72.8063L78.1054 75.6347ZM75.6347 78.1054L78.1054 75.6347L75.2769 72.8063L72.8063 75.277L75.6347 78.1054ZM65.0946 78.1054C68.0052 81.016 72.7242 81.016 75.6347 78.1054L72.8063 75.277C71.4578 76.6254 69.2715 76.6254 67.923 75.277L65.0946 78.1054ZM59.2 80.547C59.2 77.4707 62.9194 75.9301 65.0946 78.1054L67.923 75.277C63.2279 70.5818 55.2 73.9071 55.2 80.547H59.2ZM51.747 88C55.8632 88 59.2 84.6632 59.2 80.547H55.2C55.2 82.454 53.654 84 51.747 84V88ZM48.253 88H51.747V84H48.253V88ZM40.8 80.547C40.8 84.6632 44.1368 88 48.253 88V84C46.346 84 44.8 82.454 44.8 80.547H40.8ZM34.9054 78.1054C37.0806 75.9301 40.8 77.4707 40.8 80.547H44.8C44.8 73.9071 36.7721 70.5818 32.0769 75.277L34.9054 78.1054ZM24.3652 78.1054C27.2758 81.016 31.9948 81.016 34.9054 78.1054L32.0769 75.277C30.7285 76.6254 28.5421 76.6254 27.1937 75.277L24.3652 78.1054ZM21.8946 75.6347L24.3652 78.1054L27.1937 75.277L24.723 72.8063L21.8946 75.6347ZM21.8946 65.0946C18.984 68.0052 18.984 72.7242 21.8946 75.6347L24.723 72.8063C23.3746 71.4578 23.3746 69.2715 24.723 67.923L21.8946 65.0946ZM19.453 59.2C22.5293 59.2 24.0699 62.9194 21.8946 65.0946L24.723 67.923C29.4181 63.2279 26.0929 55.2 19.453 55.2V59.2ZM12 51.747C12 55.8632 15.3368 59.2 19.453 59.2V55.2C17.546 55.2 16 53.654 16 51.747H12ZM12 48.253V51.747H16V48.253H12ZM19.453 40.8C15.3368 40.8 12 44.1368 12 48.253H16C16 46.346 17.546 44.8 19.453 44.8V40.8ZM21.8946 34.9054C24.0699 37.0806 22.5293 40.8 19.453 40.8L19.453 44.8C26.0929 44.8 29.4182 36.7721 24.723 32.077L21.8946 34.9054ZM21.8946 24.3653C18.984 27.2758 18.984 31.9948 21.8946 34.9054L24.723 32.077C23.3746 30.7285 23.3746 28.5422 24.723 27.1937L21.8946 24.3653ZM24.3653 21.8946L21.8946 24.3653L24.723 27.1937L27.1937 24.723L24.3653 21.8946ZM34.9054 21.8946C31.9948 18.984 27.2758 18.984 24.3653 21.8946L27.1937 24.723C28.5422 23.3746 30.7285 23.3746 32.077 24.723L34.9054 21.8946ZM40.8 19.453C40.8 22.5293 37.0806 24.0699 34.9054 21.8946L32.077 24.723C36.7721 29.4182 44.8 26.0929 44.8 19.453H40.8ZM48.253 12C44.1368 12 40.8 15.3368 40.8 19.453H44.8C44.8 17.546 46.346 16 48.253 16V12ZM51.747 12H48.253V16H51.747V12ZM60 50C60 55.5229 55.5229 60 50 60V64C57.732 64 64 57.732 64 50H60ZM50 40C55.5229 40 60 44.4772 60 50H64C64 42.268 57.732 36 50 36V40ZM40 50C40 44.4772 44.4772 40 50 40V36C42.268 36 36 42.268 36 50H40ZM50 60C44.4772 60 40 55.5229 40 50H36C36 57.732 42.268 64 50 64V60Z" fill="#4444FF"/>
</svg>
