<svg width="25" height="25" viewBox="0 0 25 25" fill="none" xmlns="http://www.w3.org/2000/svg">
<path d="M12 12.9998L15 9.99977M23 12.9998C23 19.0749 18.0751 23.9998 12 23.9998C5.92487 23.9998 1 19.0749 1 12.9998C1 6.92464 5.92487 1.99977 12 1.99977M19 12.9998C19 16.8658 15.866 19.9998 12 19.9998C8.13401 19.9998 5 16.8658 5 12.9998C5 9.13377 8.13401 5.99977 12 5.99977M15 9.49977V5.11934C15 4.98474 15.0543 4.85582 15.1505 4.76175L18.1505 1.82993C18.4671 1.52052 19 1.74484 19 2.18752V5.49977C19 5.77591 19.2239 5.99977 19.5 5.99977H22.8122C23.2549 5.99977 23.4792 6.53263 23.1698 6.84924L20.238 9.84923C20.1439 9.9455 20.015 9.99977 19.8804 9.99977H15.5C15.2239 9.99977 15 9.77591 15 9.49977Z" stroke="black" stroke-width="2" stroke-linecap="round"/>
</svg>
