<svg width="24" height="24" viewBox="0 0 24 24" fill="none" xmlns="http://www.w3.org/2000/svg">
<path d="M10.0004 12.0001L10.6266 12.6263C11.0171 13.0169 11.6503 13.0169 12.0408 12.6263L14.0004 10.6668M12.8609 3.49797L14.9233 7.08817C15.2106 7.58825 15.6998 7.93998 16.2653 8.05308L19.2908 8.65819C20.0482 8.80965 20.3552 9.7259 19.8421 10.3031L17.6887 12.7258C17.257 13.2114 17.0882 13.8763 17.2358 14.509L18.2179 18.7178C18.418 19.5755 17.4919 20.2543 16.7342 19.8053L13.02 17.6043C12.3913 17.2318 11.6095 17.2318 10.9808 17.6043L7.26657 19.8053C6.5089 20.2543 5.5828 19.5755 5.78292 18.7178L6.75645 14.5455C6.9088 13.8926 6.72388 13.2068 6.26395 12.719L4.11312 10.4379C3.5743 9.86638 3.87441 8.92529 4.6446 8.77126L7.61831 8.17651C8.1793 8.06432 8.66538 7.71726 8.95364 7.22309L11.13 3.49222C11.5173 2.82817 12.4779 2.83136 12.8609 3.49797Z" stroke="black" stroke-width="2" stroke-linecap="round"/>
</svg>
